{
    "asset" : {
        "copyright" : "JPBothma",
        "generator" : "Khronos glTF Blender I/O v3.2.43",
        "version" : "2.0"
    },
    "scene" : 0,
    "scenes" : [
        {
            "name" : "Scene",
            "nodes" : [
                0
            ]
        }
    ],
    "nodes" : [
        {
            "mesh" : 0,
            "name" : "Cube"
        }
    ],
    "materials" : [
        {
            "doubleSided" : true,
            "name" : "Wood",
            "pbrMetallicRoughness" : {
                "baseColorFactor" : [
                    0.07657976448535919,
                    0.03427021577954292,
                    0.017238356173038483,
                    1
                ],
                "metallicFactor" : 0.11999999731779099,
                "roughnessFactor" : 0.11999999731779099
            }
        },
        {
            "doubleSided" : true,
            "name" : "Brass",
            "pbrMetallicRoughness" : {
                "baseColorFactor" : [
                    0.5070721507072449,
                    0.2661246657371521,
                    0.009643563069403172,
                    1
                ],
                "metallicFactor" : 0.6499999761581421,
                "roughnessFactor" : 0.05000000074505806
            }
        },
        {
            "doubleSided" : true,
            "name" : "Plastic",
            "pbrMetallicRoughness" : {
                "baseColorFactor" : [
                    0.00901800487190485,
                    0.00901800487190485,
                    0.00901800487190485,
                    1
                ],
                "metallicFactor" : 0,
                "roughnessFactor" : 0.1223241537809372
            }
        }
    ],
    "meshes" : [
        {
            "name" : "Mesh",
            "primitives" : [
                {
                    "attributes" : {
                        "POSITION" : 0,
                        "NORMAL" : 1,
                        "TEXCOORD_0" : 2
                    },
                    "indices" : 3,
                    "material" : 0
                },
                {
                    "attributes" : {
                        "POSITION" : 4,
                        "NORMAL" : 5,
                        "TEXCOORD_0" : 6
                    },
                    "indices" : 7,
                    "material" : 1
                },
                {
                    "attributes" : {
                        "POSITION" : 8,
                        "NORMAL" : 9,
                        "TEXCOORD_0" : 10
                    },
                    "indices" : 11,
                    "material" : 2
                }
            ]
        }
    ],
    "accessors" : [
        {
            "bufferView" : 0,
            "componentType" : 5126,
            "count" : 2400,
            "max" : [
                0.5703834891319275,
                1.8843368291854858,
                0.8416006565093994
            ],
            "min" : [
                -0.5703834295272827,
                0.05261737108230591,
                -1.7919235229492188
            ],
            "type" : "VEC3"
        },
        {
            "bufferView" : 1,
            "componentType" : 5126,
            "count" : 2400,
            "type" : "VEC3"
        },
        {
            "bufferView" : 2,
            "componentType" : 5126,
            "count" : 2400,
            "type" : "VEC2"
        },
        {
            "bufferView" : 3,
            "componentType" : 5123,
            "count" : 3600,
            "type" : "SCALAR"
        },
        {
            "bufferView" : 4,
            "componentType" : 5126,
            "count" : 960,
            "max" : [
                0.220967099070549,
                1.470215082168579,
                -1.492038607597351
            ],
            "min" : [
                -0.22076205909252167,
                1.0435891151428223,
                -1.8806647062301636
            ],
            "type" : "VEC3"
        },
        {
            "bufferView" : 5,
            "componentType" : 5126,
            "count" : 960,
            "type" : "VEC3"
        },
        {
            "bufferView" : 6,
            "componentType" : 5126,
            "count" : 960,
            "type" : "VEC2"
        },
        {
            "bufferView" : 7,
            "componentType" : 5123,
            "count" : 1440,
            "type" : "SCALAR"
        },
        {
            "bufferView" : 8,
            "componentType" : 5126,
            "count" : 1440,
            "max" : [
                0.19742633402347565,
                1.8657499551773071,
                -1.5812084674835205
            ],
            "min" : [
                -0.1976860910654068,
                1.1242401599884033,
                -3.3747074604034424
            ],
            "type" : "VEC3"
        },
        {
            "bufferView" : 9,
            "componentType" : 5126,
            "count" : 1440,
            "type" : "VEC3"
        },
        {
            "bufferView" : 10,
            "componentType" : 5126,
            "count" : 1440,
            "type" : "VEC2"
        },
        {
            "bufferView" : 11,
            "componentType" : 5123,
            "count" : 2160,
            "type" : "SCALAR"
        }
    ],
    "bufferViews" : [
        {
            "buffer" : 0,
            "byteLength" : 28800,
            "byteOffset" : 0
        },
        {
            "buffer" : 0,
            "byteLength" : 28800,
            "byteOffset" : 28800
        },
        {
            "buffer" : 0,
            "byteLength" : 19200,
            "byteOffset" : 57600
        },
        {
            "buffer" : 0,
            "byteLength" : 7200,
            "byteOffset" : 76800
        },
        {
            "buffer" : 0,
            "byteLength" : 11520,
            "byteOffset" : 84000
        },
        {
            "buffer" : 0,
            "byteLength" : 11520,
            "byteOffset" : 95520
        },
        {
            "buffer" : 0,
            "byteLength" : 7680,
            "byteOffset" : 107040
        },
        {
            "buffer" : 0,
            "byteLength" : 2880,
            "byteOffset" : 114720
        },
        {
            "buffer" : 0,
            "byteLength" : 17280,
            "byteOffset" : 117600
        },
        {
            "buffer" : 0,
            "byteLength" : 17280,
            "byteOffset" : 134880
        },
        {
            "buffer" : 0,
            "byteLength" : 11520,
            "byteOffset" : 152160
        },
        {
            "buffer" : 0,
            "byteLength" : 4320,
            "byteOffset" : 163680
        }
    ],
    "buffers" : [
        {
            "byteLength" : 168000,
            "uri" : "pipe.bin"
        }
    ]
}
